<?xml version="1.0" encoding="iso-8859-1"?>
<!-- Generator: Adobe Illustrator 16.0.0, SVG Export Plug-In . SVG Version: 6.00 Build 0)  -->
<!DOCTYPE svg PUBLIC "-//W3C//DTD SVG 1.1//EN" "http://www.w3.org/Graphics/SVG/1.1/DTD/svg11.dtd">
<svg version="1.1" id="Capa_1" xmlns="http://www.w3.org/2000/svg" xmlns:xlink="http://www.w3.org/1999/xlink" x="0px" y="0px"
	 width="612.04px" height="612.041px" viewBox="0 0 612.04 612.041" style="enable-background:new 0 0 612.04 612.041;"
	 xml:space="preserve" fill='red'>
<g>
	<g>
		<g>
			<path d="M337.667,372.99c-5.279,0-9.563-4.283-9.563-9.563c0-5.278,4.283-9.562,9.563-9.562h226.539
				c3.865,0,7.551-0.776,10.856-2.151c3.508-1.454,6.715-3.626,9.385-6.275c2.648-2.63,4.801-5.816,6.274-9.323
				c1.375-3.327,2.172-7.032,2.172-10.917c0-3.847-0.757-7.552-2.151-10.938c-1.414-3.407-3.525-6.595-6.255-9.304
				c-2.67-2.669-5.857-4.841-9.324-6.275c-3.327-1.375-7.032-2.152-10.917-2.152H425.226c-5.278,0-9.562-4.283-9.562-9.563
				c0-5.28,4.284-9.563,9.562-9.563h139.021c6.375,0,12.551,1.315,18.249,3.666c5.877,2.451,11.176,6.017,15.539,10.36
				c4.442,4.443,7.949,9.742,10.34,15.521c2.391,5.757,3.666,11.973,3.666,18.269c0,6.396-1.315,12.571-3.686,18.229
				c-2.432,5.837-6.037,11.155-10.439,15.539c-4.403,4.383-9.683,7.948-15.5,10.359c-5.658,2.352-11.813,3.665-18.169,3.665H337.667
				V372.99z"/>
			<path d="M362.211,550.141c2.511,4.621,0.797,10.419-3.824,12.931c-4.622,2.51-10.42,0.797-12.93-3.825l-85.508-156.592
				c-2.51-4.622-0.797-10.419,3.825-12.931c4.622-2.51,10.419-0.797,12.93,3.825L362.211,550.141z"/>
			<path d="M275.887,392.314c3.188,4.186,2.391,10.182-1.793,13.368c-4.184,3.188-10.181,2.392-13.368-1.793
				c-11.954-15.698-22.074-23.447-32.573-27.174c-10.639-3.766-22.971-3.766-38.251-3.766c-5.279,0-9.563-4.283-9.563-9.563
				c0-5.279,4.283-9.562,9.563-9.562c17.034,0,30.76,0.021,44.606,4.9C248.474,363.686,261.423,373.308,275.887,392.314z"/>
			<path d="M353.824,564.246c-5.279,0-9.563-4.283-9.563-9.563c0-5.279,4.283-9.562,9.563-9.562c2.251,0,4.722-0.279,7.252-0.837
				l0.238-0.04c6.494-1.454,13.289-4.604,18.368-9.403c4.741-4.443,8.01-10.42,8.01-17.791h-0.04c0-2.052-0.239-4.243-0.737-6.515
				c-1.115-5.16,2.172-10.261,7.312-11.355c5.16-1.116,10.262,2.171,11.356,7.312c0.797,3.686,1.175,7.212,1.175,10.559h-0.039
				c0,13.328-5.718,23.927-13.966,31.697c-7.671,7.231-17.632,11.973-27.075,14.125l-0.498,0.119
				C361.295,563.828,357.43,564.246,353.824,564.246z"/>
			<path d="M405.424,505.893c1.435,5.061-1.495,10.359-6.575,11.794c-5.06,1.436-10.358-1.493-11.794-6.573l-25.76-90.229
				c-1.435-5.08,1.494-10.358,6.574-11.794c5.061-1.435,10.359,1.494,11.795,6.574L405.424,505.893z"/>
			<path d="M9.563,47.794h0.239h133.621c5.279,0,9.563,4.283,9.563,9.563v0.259v324.917c0,5.278-4.283,9.562-9.563,9.562h-0.239
				H9.563c-5.28,0-9.563-4.283-9.563-9.562v-0.259V57.357C0,52.078,4.283,47.794,9.563,47.794L9.563,47.794z M133.859,66.919H19.125
				v306.03h114.734V66.919L133.859,66.919z"/>
			<path d="M332.148,48.172c5.079-1.395,10.318,1.574,11.733,6.634c1.396,5.08-1.574,10.32-6.635,11.734l-93.098,25.779
				c-0.856,0.239-1.713,0.359-2.55,0.359v0.04h-51.58c-5.279,0-9.563-4.283-9.563-9.563c0-5.28,4.284-9.563,9.563-9.563h50.404
				L332.148,48.172z"/>
			<path d="M612,248.672c0,5.28-4.283,9.563-9.562,9.563c-5.28,0-9.563-4.283-9.563-9.563c0-3.845-0.757-7.55-2.151-10.938
				c-1.414-3.407-3.525-6.594-6.256-9.304c-2.669-2.669-5.856-4.841-9.322-6.275c-3.327-1.375-7.033-2.152-10.919-2.152h-139.02
				c-5.279,0-9.563-4.283-9.563-9.563s4.283-9.563,9.563-9.563h139.02c6.375,0,12.553,1.315,18.249,3.666
				c5.877,2.451,11.178,6.017,15.54,10.36c4.442,4.443,7.949,9.742,10.341,15.52C610.725,236.182,612,242.377,612,248.672z"/>
			<path d="M573.729,172.13c0,5.279-4.282,9.563-9.562,9.563s-9.562-4.283-9.562-9.563c0-3.845-0.759-7.571-2.133-10.938h-0.021
				c-1.396-3.387-3.525-6.575-6.255-9.304l-0.438-0.478c-2.569-2.43-5.618-4.423-8.905-5.797c-3.326-1.375-7.032-2.151-10.918-2.151
				h-139.02c-5.279,0-9.563-4.284-9.563-9.563c0-5.28,4.283-9.563,9.563-9.563h139.02c6.375,0,12.553,1.315,18.229,3.666
				c5.578,2.311,10.639,5.678,14.922,9.782l0.638,0.578c4.442,4.443,7.949,9.742,10.34,15.5h-0.021l0.021,0.04
				C572.454,159.66,573.729,165.835,573.729,172.13z"/>
			<path d="M499.776,95.608c0,5.279-4.283,9.563-9.563,9.563s-9.562-4.283-9.562-9.563c0-3.845-0.758-7.571-2.151-10.958
				l-0.199-0.478c-1.374-3.188-3.446-6.216-6.057-8.826c-2.669-2.65-5.856-4.801-9.344-6.256c-3.326-1.375-7.032-2.151-10.917-2.151
				H334.698c-5.279,0-9.563-4.284-9.563-9.563c0-5.279,4.283-9.563,9.563-9.563h117.284c6.354,0,12.551,1.315,18.249,3.666
				c5.896,2.45,11.195,6.017,15.538,10.359c4.284,4.284,7.75,9.443,10.142,15.082l0.199,0.438
				C498.501,83.097,499.776,89.333,499.776,95.608z"/>
		</g>
	</g>
</g>
<g>
</g>
<g>
</g>
<g>
</g>
<g>
</g>
<g>
</g>
<g>
</g>
<g>
</g>
<g>
</g>
<g>
</g>
<g>
</g>
<g>
</g>
<g>
</g>
<g>
</g>
<g>
</g>
<g>
</g>
</svg>
